<?xml version="1.0" standalone="no"?>
<!DOCTYPE svg PUBLIC "-//W3C//DTD SVG 20010904//EN"
 "http://www.w3.org/TR/2001/REC-SVG-20010904/DTD/svg10.dtd">
<svg version="1.0" xmlns="http://www.w3.org/2000/svg"
 width="260.000000pt" height="260.000000pt" viewBox="0 0 260.000000 260.000000"
 preserveAspectRatio="xMidYMid meet">
<metadata>
Created by potrace 1.11, written by Peter Selinger 2001-2013
</metadata>
<g transform="translate(0.000000,260.000000) scale(0.100000,-0.100000)"
fill="#000000" stroke="none">
<path d="M1707 2303 c-2 -5 -4 -273 -3 -598 1 -324 -2 -615 -7 -645 -10 -72
-56 -166 -113 -229 -82 -91 -240 -150 -362 -136 -194 23 -348 162 -386 349
-41 198 63 400 251 489 64 30 75 32 178 32 106 0 112 -1 185 -37 52 -25 93
-55 128 -92 l52 -55 0 124 0 124 -29 21 c-50 35 -132 68 -209 85 -382 80 -742
-211 -742 -600 0 -171 61 -317 185 -441 117 -117 265 -177 436 -177 100 1 166
16 267 65 112 53 222 161 275 269 66 137 67 140 67 776 l0 573 -47 34 c-66 48
-121 78 -126 69z"/>
<path d="M1125 1960 c-167 -30 -325 -111 -447 -232 -110 -108 -184 -235 -224
-383 -29 -108 -26 -343 5 -445 114 -367 434 -605 812 -603 119 0 302 38 367
75 188 109 342 282 410 463 71 187 70 424 -4 606 -30 73 -72 149 -84 149 -13
0 -4 -144 12 -181 48 -109 64 -315 34 -441 -66 -284 -278 -501 -561 -573 -94
-25 -265 -25 -360 0 -235 60 -433 230 -522 447 -98 242 -63 533 89 738 210
283 585 387 909 251 l69 -29 0 50 c0 30 -4 47 -10 43 -5 -3 -10 -1 -10 6 0 7
-3 10 -6 7 -3 -4 -22 0 -41 9 -104 43 -316 64 -438 43z"/>
</g>
</svg>
